<?xml version="1.0" encoding="UTF-8"?>
<svg id="Layer_1" data-name="Layer 1" xmlns="http://www.w3.org/2000/svg" viewBox="0 0 33.09 21.18">
  <defs>
    <style>
      .cls-1 {
        fill: #fff;
        stroke-width: 0px;
      }
    </style>
  </defs>
  <polygon class="cls-1" points="6.1 5.9 12.57 6.18 7.85 15.23 9.27 16.86 7.1 21.15 5.15 21.14 0 14.61 3.61 7.85 6.1 5.9"/>
  <path class="cls-1" d="M7.99,21.15c2.41-4.57,4.82-9.14,7.23-13.71l-3.96-6.02.97-.74h6.26l4.78,6.89-3.03,5.77.19,2.3,4.82-9.26L20.38,0h7.95s4.75,6.88,4.75,6.88c-2.49,4.76-4.99,9.52-7.48,14.28-2.59,0-5.19.02-7.78.02l-.67-2.13-1.14,2.13c-2.68,0-5.35-.02-8.03-.02Z"/>
</svg>